<?xml version="1.0" encoding="UTF-8"?>
<svg id="Layer_2" data-name="Layer 2" xmlns="http://www.w3.org/2000/svg" viewBox="0 0 64 64">
  <defs>
    <style>
      .cls-1 {
        fill: none;
        stroke: #231f20;
        stroke-linecap: round;
        stroke-miterlimit: 10;
        stroke-width: 2px;
      }

      .cls-2 {
        fill: #231f20;
      }

      .cls-2, .cls-3 {
        stroke-width: 0px;
      }

      .cls-3 {
        fill: #f9ed32;
      }
    </style>
  </defs>
  <g id="Layer_1-2" data-name="Layer 1">
    <g>
      <path class="cls-3" d="M32,63c-17.09,0-31-13.91-31-31S14.91,1,32,1s31,13.91,31,31-13.91,31-31,31Z"/>
      <path class="cls-2" d="M32,2c16.54,0,30,13.46,30,30s-13.46,30-30,30S2,48.54,2,32,15.46,2,32,2M32,0C14.33,0,0,14.33,0,32s14.33,32,32,32,32-14.33,32-32S49.67,0,32,0h0Z"/>
    </g>
    <g>
      <path class="cls-2" d="M22,30.73c-.43-.86-1-3.19-1-6.73s.57-5.87,1-6.73c.43.86,1,3.19,1,6.73s-.57,5.87-1,6.73Z"/>
      <path class="cls-2" d="M22,16c-1.1,0-2,3.58-2,8s.9,8,2,8,2-3.58,2-8-.9-8-2-8h0Z"/>
    </g>
    <g>
      <path class="cls-2" d="M42,30.73c-.43-.86-1-3.19-1-6.73s.57-5.87,1-6.73c.43.86,1,3.19,1,6.73s-.57,5.87-1,6.73Z"/>
      <path class="cls-2" d="M42,16c-1.1,0-2,3.58-2,8s.9,8,2,8,2-3.58,2-8-.9-8-2-8h0Z"/>
    </g>
    <path class="cls-1" d="M7.74,26c-2.22,16.5,10.77,30.17,24.33,30,13.36-.17,25.88-13.77,23.67-30"/>
  </g>
</svg>